<?xml version="1.0" standalone="no"?>
<!DOCTYPE svg PUBLIC "-//W3C//DTD SVG 20010904//EN"
 "http://www.w3.org/TR/2001/REC-SVG-20010904/DTD/svg10.dtd">
<svg version="1.0" xmlns="http://www.w3.org/2000/svg"
 width="4029.000000pt" height="5863.000000pt" viewBox="0 0 4029.000000 5863.000000"
 preserveAspectRatio="xMidYMid meet">

<g transform="translate(0.000000,5863.000000) scale(0.100000,-0.100000)"
fill="#000000" stroke="none">
<path d="M33511 57738 c-49 -14 -151 -120 -185 -192 -17 -35 -31 -86 -34 -124
l-7 -65 -53 -13 c-140 -36 -232 -141 -262 -301 l-13 -66 -56 110 c-66 129
-139 225 -196 259 -116 67 -257 -6 -340 -178 -28 -59 -33 -79 -39 -185 -28
-486 -144 -1012 -365 -1663 -92 -274 -175 -496 -371 -1000 -558 -1435 -1008
-2748 -1339 -3905 -531 -1861 -831 -3608 -880 -5133 -4 -139 -10 -255 -13
-257 -3 -3 -171 19 -374 50 -464 69 -440 66 -1107 112 -611 41 -596 41 -624
-17 -19 -40 -155 -1161 -243 -1994 -11 -104 -22 -192 -26 -195 -3 -3 -3 73 0
169 4 96 11 337 16 535 15 523 39 1233 46 1361 5 93 3 116 -11 143 -32 64 -13
63 -758 50 -487 -9 -680 -15 -703 -24 -19 -8 -37 -26 -49 -51 -17 -36 -18
-100 -19 -1188 -1 -632 -4 -1129 -9 -1105 -8 50 -77 837 -137 1559 -62 750
-56 700 -78 729 -10 14 -31 30 -46 35 -19 7 -171 -6 -544 -48 -697 -78 -833
-95 -858 -107 -44 -22 -57 -64 -51 -158 8 -118 106 -927 173 -1426 30 -225 57
-426 59 -445 10 -82 -17 28 -81 330 -51 239 -59 274 -104 475 -18 77 -34 154
-37 170 -2 17 -6 37 -10 45 -5 16 -30 125 -39 175 -2 17 -10 48 -15 70 -6 22
-12 47 -14 55 -2 8 -8 35 -14 60 -27 118 -51 229 -57 265 -3 22 -8 43 -10 46
-2 4 -6 24 -10 44 -25 159 -63 225 -128 225 -46 0 -880 -181 -1055 -229 -152
-42 -185 -61 -196 -112 -7 -29 87 -355 355 -1244 66 -220 123 -409 127 -420 4
-14 2 -17 -5 -10 -5 6 -146 366 -311 800 -166 435 -310 801 -320 815 -37 52
-66 49 -303 -28 -250 -80 -217 -85 -293 48 -325 574 -736 1208 -1289 1990
-907 1283 -1672 2270 -2418 3120 -277 316 -429 480 -823 890 -734 764 -1092
1164 -1940 2165 -469 553 -637 757 -781 950 -420 559 -659 1047 -754 1544 -26
135 -44 170 -101 199 -120 63 -288 -38 -383 -231 -110 -224 -164 -475 -168
-781 -2 -124 -4 -146 -17 -141 -36 14 -133 16 -200 5 -192 -32 -315 -151 -390
-375 -44 -133 -57 -211 -96 -557 -167 -1508 -203 -2838 -109 -4048 253 -3295
1060 -6087 2442 -8450 634 -1084 1385 -2047 2132 -2735 823 -758 1724 -1345
3437 -2242 l133 -69 -132 -90 c-691 -468 -1353 -1069 -1835 -1669 -480 -597
-917 -1360 -1355 -2365 -50 -113 -96 -218 -103 -235 -29 -64 -296 -711 -300
-725 -1 -8 -10 -31 -19 -50 -19 -42 -166 -419 -166 -426 0 -2 -10 -26 -21 -52
-36 -80 -44 -99 -154 -387 -691 -1805 -1002 -2542 -1426 -3385 -732 -1455
-1517 -2465 -2474 -3181 -615 -460 -1332 -801 -2092 -992 -341 -86 -304 -83
-515 -48 -489 81 -940 128 -1453 152 -313 15 -1006 6 -1275 -15 -1228 -99
-2162 -376 -2945 -874 -154 -98 -183 -118 -333 -236 -123 -97 -231 -193 -352
-316 -58 -58 -125 -121 -150 -140 -91 -69 -175 -147 -248 -230 -313 -357 -508
-840 -602 -1495 -10 -71 -30 -195 -44 -275 -123 -692 -112 -1520 34 -2420 17
-102 33 -196 35 -211 5 -23 0 -27 -72 -59 -129 -55 -346 -166 -465 -237 -473
-279 -796 -590 -968 -933 -155 -308 -176 -654 -59 -987 102 -290 408 -744 693
-1029 216 -215 388 -321 624 -386 106 -29 357 -31 482 -4 358 77 759 296 1461
798 235 168 359 252 363 247 2 -2 15 -64 29 -138 15 -74 29 -136 31 -139 4 -3
51 27 89 58 4 3 -6 70 -22 148 l-28 142 136 77 c343 195 691 316 1071 374 189
29 530 31 720 5 1090 -150 2175 -902 3252 -2256 438 -551 569 -701 839 -965
445 -435 841 -734 1306 -984 841 -454 1790 -615 2744 -466 784 124 1575 447
2359 964 80 53 150 98 155 100 21 9 298 210 439 320 173 134 403 325 563 468
122 108 314 251 469 348 111 70 243 140 250 132 9 -8 -46 -116 -124 -246 -158
-262 -331 -503 -616 -856 -595 -738 -794 -1009 -1173 -1600 -229 -356 -375
-595 -653 -1070 -612 -1045 -889 -1480 -1241 -1950 -486 -649 -959 -1139
-1479 -1532 -977 -738 -2126 -1099 -3405 -1070 -137 4 -279 9 -315 11 -36 3
-96 8 -135 11 -85 7 -139 12 -300 31 -44 5 -107 13 -145 19 -14 2 -45 7 -70
10 -25 3 -70 10 -100 16 -30 5 -68 12 -85 14 -202 36 -499 112 -701 180 -476
160 -841 378 -1131 676 -195 200 -320 386 -507 755 -48 95 -106 200 -130 235
-25 39 -53 99 -70 154 -26 83 -33 95 -96 160 -38 39 -78 81 -89 95 l-20 25 14
-40 c7 -22 24 -77 38 -123 l26 -83 -22 8 c-32 11 -164 5 -217 -11 -145 -43
-372 -206 -633 -456 -218 -208 -345 -427 -403 -692 -22 -102 -29 -324 -14
-444 57 -465 344 -992 779 -1437 352 -360 766 -656 1291 -921 963 -488 2082
-756 3150 -756 777 0 1581 130 2355 380 66 22 181 51 255 65 392 76 829 213
1246 390 176 75 487 227 612 299 35 20 66 36 68 36 10 0 271 161 394 243 613
409 1126 893 1558 1472 249 332 432 636 658 1087 592 1183 1400 2201 2430
3060 1102 918 2444 1596 3614 1827 329 65 1088 171 2430 341 1689 213 2430
322 3235 474 1514 287 2741 660 3870 1176 852 391 1697 934 2417 1556 431 372
944 895 1282 1306 206 250 340 420 386 488 8 12 20 28 27 35 22 23 258 358
360 510 1121 1681 1892 3731 2203 5859 237 1624 207 3170 -91 4686 -485 2465
-1377 4778 -2517 6530 -124 190 -167 255 -172 260 -3 3 -39 55 -79 115 -72
107 -130 189 -199 283 -39 52 -49 103 -81 427 -30 290 -41 522 -41 824 0 854
121 1791 415 3217 361 1748 533 3115 617 4889 17 363 17 1916 0 2270 -59 1208
-148 2118 -308 3149 -320 2060 -853 4000 -1644 5976 -282 706 -529 1263 -917
2070 -105 217 -230 492 -277 610 -113 278 -268 590 -350 705 -86 119 -187 228
-229 249 -39 18 -94 19 -146 4z m221 -407 c78 -117 175 -311 263 -526 121
-298 191 -456 275 -625 658 -1319 1291 -2901 1725 -4308 732 -2376 1145 -4968
1188 -7459 8 -421 -128 -1208 -308 -1788 -95 -306 -282 -776 -332 -836 -45
-53 -129 -61 -171 -16 -30 32 -133 379 -241 812 -123 492 -212 925 -362 1765
-213 1192 -262 1449 -354 1870 -125 568 -310 1273 -561 2130 -116 399 -144
499 -160 580 -3 14 -18 81 -34 150 -59 261 -80 355 -81 362 0 4 -5 22 -10 40
-5 18 -12 47 -15 63 -2 17 -11 57 -19 90 -8 33 -19 83 -25 110 -6 28 -13 59
-15 70 -3 11 -7 32 -10 48 -3 15 -12 60 -21 100 -9 39 -20 90 -25 112 -4 22
-11 51 -14 65 -4 14 -9 39 -11 55 -6 33 -41 198 -49 230 -3 11 -8 34 -11 50
-7 40 -64 324 -70 350 -2 11 -6 32 -9 46 -3 14 -12 61 -20 105 -9 43 -18 95
-21 114 -3 19 -11 62 -19 95 -7 33 -16 80 -20 105 -4 24 -8 47 -10 50 -2 3 -6
24 -9 46 -4 22 -9 51 -12 64 -13 60 -97 519 -119 655 -14 83 -27 161 -30 175
-11 57 -55 308 -59 340 -3 19 -7 49 -10 65 -3 17 -8 44 -10 60 -3 17 -9 55
-15 85 -5 30 -12 69 -15 85 -4 26 -27 161 -71 420 -7 44 -23 132 -34 195 -21
123 -25 146 -41 255 -6 39 -12 77 -15 85 -2 8 -7 44 -10 80 -3 36 -8 72 -10
80 -2 8 -7 40 -10 70 -3 30 -10 89 -15 130 -19 144 -30 448 -30 810 0 201 -2
379 -4 395 -3 17 -8 71 -11 120 -6 116 -21 215 -34 228 -17 17 -63 -5 -88 -42
-19 -27 -22 -42 -16 -70 13 -67 6 -534 -12 -841 -22 -382 -17 -789 14 -1080
31 -284 129 -995 166 -1195 8 -44 46 -271 85 -504 190 -1137 401 -2216 680
-3466 39 -176 78 -349 85 -385 8 -36 23 -102 33 -148 11 -45 21 -86 21 -90 1
-4 4 -16 6 -27 3 -11 7 -31 10 -45 2 -14 9 -45 15 -70 6 -25 20 -85 31 -135
53 -243 61 -281 65 -300 2 -11 8 -38 13 -60 41 -162 180 -813 265 -1235 299
-1482 436 -2557 506 -3950 28 -547 23 -1547 -10 -2145 -77 -1376 -277 -2685
-596 -3900 -77 -293 -103 -381 -204 -715 -61 -197 -57 -187 -63 -170 -206 620
-429 1055 -1030 2010 -99 157 -220 355 -269 440 -107 185 -329 628 -417 830
-35 80 -69 159 -77 175 -55 122 -226 581 -309 830 -202 607 -421 1455 -584
2270 -241 1203 -375 2323 -422 3530 -13 341 -7 1404 10 1685 17 281 41 603 57
770 8 85 19 211 25 280 5 69 37 385 70 704 33 318 57 581 55 584 -3 2 -10 -6
-15 -19 -5 -13 -28 -71 -51 -129 -361 -900 -606 -2042 -710 -3310 -65 -797
-87 -1846 -50 -2395 80 -1174 317 -2270 852 -3930 44 -137 211 -634 370 -1104
322 -948 310 -900 239 -948 -66 -44 -102 -29 -232 95 -553 529 -999 1095
-1432 1816 -138 230 -170 296 -260 531 -334 875 -591 1876 -731 2855 -228
1588 -185 3176 135 4985 334 1889 942 3922 1939 6485 520 1338 688 1940 740
2660 9 124 14 150 35 187 14 23 30 45 36 48 24 15 107 -134 184 -331 97 -247
150 -341 204 -364 57 -23 123 14 141 81 6 22 17 133 25 247 15 227 31 300 70
326 13 9 26 16 28 16 2 0 9 -18 16 -39 23 -77 110 -106 169 -56 37 31 38 35
52 225 14 191 13 187 51 240 l32 44 44 -48 c24 -27 76 -96 115 -155z m-20417
-2266 c96 -423 319 -880 665 -1363 193 -269 296 -395 945 -1162 764 -903 1184
-1371 1888 -2103 312 -324 532 -560 738 -792 144 -163 290 -331 338 -389 9
-10 30 -35 47 -55 18 -20 78 -92 135 -161 56 -69 119 -143 138 -165 20 -22 47
-56 61 -74 14 -19 30 -39 36 -45 5 -6 30 -36 55 -67 24 -30 87 -109 140 -175
279 -347 654 -842 1030 -1357 186 -256 259 -364 299 -445 28 -59 140 -276 247
-482 785 -1507 1083 -2164 1351 -2980 98 -298 223 -747 222 -794 -1 -18 -27
22 -93 139 -34 61 -66 118 -72 127 -5 10 -43 75 -84 145 -41 71 -93 160 -116
198 -23 39 -82 138 -130 220 -255 433 -456 762 -477 782 -49 46 -64 42 -338
-77 -302 -132 -574 -271 -596 -305 -30 -45 -22 -86 33 -171 27 -43 153 -241
280 -439 448 -702 988 -1566 1372 -2197 122 -200 161 -272 156 -288 -20 -62
-106 -111 -138 -79 -7 8 -68 77 -136 154 -175 199 -419 539 -1434 1995 -285
410 -524 750 -529 755 -16 14 -3 -8 52 -90 159 -238 442 -700 607 -990 136
-239 312 -569 307 -574 -14 -14 -82 81 -150 209 -281 529 -645 1142 -962 1620
-90 135 -193 290 -229 345 -36 55 -70 102 -75 103 -4 2 -8 8 -8 13 0 12 -314
462 -478 684 -41 55 -80 109 -88 120 -102 144 -127 174 -136 169 -7 -4 -8 -2
-4 5 10 15 -13 43 -27 34 -6 -3 -7 -1 -3 6 10 15 -248 363 -614 830 -25 31
-56 72 -70 91 -26 36 -71 92 -80 100 -10 10 -96 116 -122 150 -14 19 -34 44
-45 55 -10 11 -41 47 -67 80 -27 33 -52 62 -56 65 -3 3 -30 34 -59 70 -30 36
-57 67 -60 70 -4 3 -55 61 -115 130 -110 127 -150 170 -130 140 6 -8 89 -112
185 -230 393 -485 997 -1245 992 -1250 -2 -3 -14 6 -24 20 -11 14 -28 34 -37
45 -9 11 -113 139 -231 285 -224 276 -322 396 -545 665 -618 746 -1060 1290
-1381 1700 -129 164 -546 716 -583 771 -7 10 -78 111 -158 224 -880 1240
-1453 2316 -1814 3410 -58 173 -72 205 -89 208 -25 4 -77 -31 -86 -58 -3 -11
18 -102 49 -207 376 -1284 1027 -2547 2058 -3991 437 -611 759 -1028 1763
-2282 1098 -1372 1347 -1698 1842 -2420 221 -323 663 -1006 663 -1026 0 -4
-30 22 -68 57 -102 97 -312 281 -376 329 -86 65 -84 66 -428 -165 -320 -216
-469 -324 -493 -358 -8 -12 -15 -36 -15 -54 0 -36 154 -664 171 -694 5 -11 98
-90 207 -176 648 -516 1277 -1060 1872 -1621 156 -147 780 -762 774 -762 -2 0
-70 48 -151 106 -601 430 -1385 908 -1980 1206 -201 101 -202 102 -242 89 -49
-14 -74 -48 -73 -99 0 -31 106 -324 130 -358 4 -5 124 -89 267 -185 756 -510
1532 -1106 2255 -1733 133 -115 152 -133 130 -120 -8 4 -85 56 -170 115 -439
302 -976 623 -1520 909 -296 156 -410 210 -442 210 -61 0 -108 -46 -108 -106
0 -13 20 -65 45 -114 25 -50 42 -90 38 -90 -17 0 -468 351 -698 544 -189 159
-452 391 -550 486 -49 48 -148 142 -220 209 -247 234 -645 659 -926 991 -1024
1209 -1858 2614 -2405 4050 -34 91 -69 169 -78 175 -20 12 -65 -20 -85 -61
-14 -27 -10 -41 53 -229 105 -315 290 -795 399 -1035 13 -30 41 -93 62 -140
71 -161 343 -706 450 -900 577 -1050 1284 -2013 2080 -2829 677 -695 1324
-1238 2075 -1742 l176 -118 76 -126 c42 -69 74 -125 72 -125 -2 0 -68 40 -146
88 -79 49 -242 148 -363 221 -121 73 -236 143 -255 156 -651 422 -1083 759
-1660 1294 -68 64 -115 102 -105 86 11 -17 137 -206 281 -420 303 -454 523
-790 731 -1117 122 -192 148 -239 148 -270 0 -46 -29 -87 -78 -111 l-37 -18
-142 51 c-734 268 -1429 702 -2143 1339 -265 237 -780 768 -919 948 -138 179
-537 876 -786 1373 -1035 2066 -1655 4394 -1905 7150 -95 1054 -101 2054 -19
3210 36 511 120 1338 150 1488 26 126 71 235 117 288 55 63 103 84 196 84 68
0 80 -3 147 -40 91 -50 125 -51 169 -7 l33 33 -5 210 c-8 284 13 463 74 659
32 100 85 214 120 256 l27 32 7 -24 c4 -13 19 -78 34 -144z m4630 -9725 c10
-11 14 -20 9 -20 -5 0 -17 9 -27 20 -9 11 -13 20 -8 20 4 0 16 -9 26 -20z m35
-45 c7 -8 9 -15 6 -15 -4 0 -14 7 -22 15 -9 8 -11 15 -6 15 5 0 15 -7 22 -15z
m41 -52 c13 -16 12 -17 -3 -4 -10 7 -18 15 -18 17 0 8 8 3 21 -13z m11348
-817 c1 -85 -3 -100 -100 -415 -128 -416 -120 -393 -125 -389 -3 3 46 224 194
878 14 66 17 71 23 45 4 -16 7 -70 8 -119z m2008 -458 c-3 -7 -5 -2 -5 12 0
14 2 19 5 13 2 -7 2 -19 0 -25z m10 -80 c-3 -7 -5 -2 -5 12 0 14 2 19 5 13 2
-7 2 -19 0 -25z m0 -75 c-3 -10 -5 -4 -5 12 0 17 2 24 5 18 2 -7 2 -21 0 -30z
m10 -70 c-3 -10 -5 -4 -5 12 0 17 2 24 5 18 2 -7 2 -21 0 -30z m18 -209 c8
-98 18 -197 21 -219 4 -22 3 -37 -1 -33 -4 4 -16 96 -26 205 -20 214 -22 239
-14 231 3 -2 12 -85 20 -184z m22 -296 c-3 -7 -5 -2 -5 12 0 14 2 19 5 13 2
-7 2 -19 0 -25z m10 -50 c-3 -7 -5 -2 -5 12 0 14 2 19 5 13 2 -7 2 -19 0 -25z
m0 -40 c-3 -8 -6 -5 -6 6 -1 11 2 17 5 13 3 -3 4 -12 1 -19z m2369 -6825 c214
-303 329 -518 579 -1076 36 -82 70 -156 75 -165 5 -9 25 -49 43 -88 l34 -71
-30 -83 c-24 -67 -32 -80 -38 -65 -5 11 -38 103 -75 205 -106 295 -243 606
-460 1038 -110 221 -200 402 -199 402 1 0 33 -44 71 -97z m-13131 -558 c88
-14 196 -32 240 -41 258 -51 652 -156 721 -193 21 -12 48 -21 60 -21 42 0 324
-109 524 -202 185 -87 507 -280 615 -371 11 -9 38 -30 60 -47 90 -70 318 -305
393 -405 13 -16 86 -128 99 -150 53 -90 138 -280 166 -375 37 -121 67 -286 67
-363 0 -83 5 -83 89 -6 513 475 1285 716 2641 826 310 25 1169 25 1460 0 792
-68 1392 -194 2071 -437 358 -128 816 -340 1124 -520 653 -383 1193 -851 1595
-1385 448 -596 730 -1271 836 -2005 21 -148 21 -146 23 -203 1 -34 5 -47 13
-45 20 7 112 200 147 306 40 124 75 283 97 442 14 101 18 226 22 653 l4 528
29 34 c38 43 89 61 128 45 50 -20 246 -297 375 -530 59 -105 170 -338 201
-420 10 -25 24 -60 32 -78 23 -53 112 -329 139 -431 23 -90 28 -109 39 -168 3
-16 10 -44 15 -63 5 -19 11 -46 14 -60 28 -146 36 -191 41 -230 8 -58 14 -99
20 -130 14 -74 36 -347 45 -558 12 -262 2 -618 -25 -899 -9 -86 -14 -158 -12
-159 2 -2 56 159 121 359 272 835 277 850 306 879 93 93 191 14 329 -267 100
-201 155 -385 198 -655 26 -163 26 -710 0 -920 -46 -380 -117 -759 -222 -1189
-36 -145 -65 -266 -65 -270 0 -3 37 77 81 179 328 755 437 991 470 1013 13 10
43 17 66 17 79 0 110 -44 313 -450 1007 -2012 1156 -4649 393 -6965 -145 -440
-280 -765 -504 -1215 -258 -516 -478 -898 -774 -1345 -465 -702 -937 -1245
-1429 -1648 -67 -54 -173 -158 -267 -261 -549 -601 -1208 -1164 -1914 -1635
-826 -551 -1703 -981 -2650 -1299 -1066 -357 -2064 -562 -3610 -742 -1190
-138 -1855 -226 -1877 -248 -4 -4 -10 -34 -13 -67 -3 -33 -10 -87 -16 -120 -6
-33 -13 -76 -15 -95 -7 -55 -45 -273 -48 -279 -2 -3 -7 -28 -10 -56 -4 -27
-15 -86 -26 -130 -10 -44 -21 -97 -24 -119 -4 -21 -8 -41 -10 -45 -2 -3 -7
-22 -10 -41 -3 -19 -8 -44 -10 -55 -7 -34 -32 -139 -41 -175 -3 -11 -7 -30
-10 -42 -18 -86 -59 -244 -65 -248 -4 -3 -13 -30 -20 -61 l-13 -57 -106 -21
c-952 -193 -1968 -641 -2926 -1289 -1213 -821 -2246 -1933 -2965 -3192 -46
-80 -163 -300 -260 -490 -236 -460 -355 -662 -557 -943 -221 -309 -382 -498
-667 -782 -399 -399 -815 -716 -1301 -994 -617 -354 -1336 -624 -1944 -732
-64 -11 -192 -45 -286 -75 -572 -182 -1151 -296 -1745 -345 -176 -15 -812 -18
-995 -6 -66 5 -127 9 -135 9 -13 0 -59 5 -225 23 -111 12 -216 27 -330 46 -66
12 -133 23 -150 26 -130 20 -507 112 -690 169 -66 20 -136 41 -155 46 -82 24
-379 136 -537 204 -1257 537 -2181 1421 -2404 2300 -104 411 -34 779 206 1089
125 161 464 449 631 537 157 83 248 81 342 -7 64 -59 104 -124 250 -402 178
-339 293 -504 497 -709 135 -135 237 -219 390 -321 396 -264 943 -460 1570
-564 171 -28 166 -27 210 -33 22 -3 58 -8 80 -10 76 -10 130 -16 190 -22 33
-3 78 -7 100 -10 260 -27 951 -27 1210 1 22 2 65 6 95 10 50 5 81 9 160 20 14
2 43 6 65 10 23 3 52 7 65 10 13 3 42 7 65 11 194 28 526 113 780 198 1018
343 1890 971 2705 1951 440 528 831 1110 1415 2105 473 806 677 1138 948 1545
280 420 476 684 898 1210 353 441 451 570 596 787 245 366 333 547 309 641
-19 78 -194 15 -482 -175 -187 -122 -310 -214 -429 -321 -142 -128 -377 -323
-551 -458 -971 -754 -1969 -1224 -2911 -1373 -61 -10 -100 -15 -153 -21 -30
-3 -70 -8 -88 -10 -196 -24 -677 -24 -879 0 -21 3 -72 10 -113 15 -41 6 -91
13 -110 16 -19 2 -42 6 -50 9 -8 2 -33 6 -55 10 -78 11 -364 84 -491 125 -948
306 -1830 958 -2603 1926 -53 66 -154 194 -226 285 -268 339 -576 682 -866
963 -970 941 -1963 1415 -2897 1383 -92 -4 -185 -8 -207 -11 -106 -14 -133
-18 -233 -36 -338 -64 -660 -183 -980 -361 -170 -95 -270 -162 -600 -398 -336
-240 -606 -420 -802 -532 -703 -403 -1152 -385 -1618 65 -175 169 -303 328
-480 595 -146 220 -233 408 -272 583 -128 587 224 1158 1004 1627 140 84 371
202 511 261 55 23 104 45 108 50 5 4 -10 117 -32 251 -89 530 -124 906 -125
1354 -1 334 5 476 29 710 107 1050 469 1870 1105 2505 834 834 2085 1293 3765
1381 281 15 1045 6 1325 -15 424 -32 766 -73 1120 -132 l214 -36 86 17 c227
45 605 152 860 243 1277 458 2367 1359 3263 2698 146 219 215 326 273 423 22
36 48 79 59 97 49 79 191 330 198 351 9 23 30 34 22 11 -2 -7 -25 -78 -51
-158 -26 -80 -59 -179 -75 -220 -16 -41 -23 -68 -15 -60 19 20 180 303 311
545 59 110 111 204 115 208 8 9 76 -67 168 -189 553 -733 858 -1793 899 -3121
3 -117 8 -213 10 -213 3 0 102 31 221 69 120 39 250 80 291 93 l74 23 39 105
c131 355 226 767 260 1122 9 102 17 138 33 162 37 55 51 57 260 44 357 -22
748 20 1084 117 877 252 1652 902 2230 1870 531 889 864 1989 942 3109 7 109
10 302 6 540 -6 386 -18 532 -68 841 -22 133 -22 133 -2 171 11 23 34 46 57
57 33 17 42 18 79 7 197 -58 332 -143 505 -316 118 -119 134 -133 130 -116 -1
4 5 68 13 142 21 196 18 709 -4 902 -90 764 -349 1448 -750 1980 -505 671
-1209 1054 -1989 1085 -87 3 -158 9 -158 12 0 24 468 414 730 608 223 164 632
441 655 442 6 1 82 -10 170 -24z m14225 -142 c-69 -251 -184 -672 -188 -690
-2 -13 -8 -20 -13 -17 -16 9 -10 58 16 135 14 41 62 196 106 344 92 310 87
295 93 295 2 0 -4 -30 -14 -67z m-243 -887 c-2 -6 -21 -69 -42 -141 -21 -71
-40 -134 -43 -140 -4 -5 -14 14 -23 44 l-16 54 41 102 c37 93 42 101 64 97 13
-3 21 -10 19 -16z m-16177 -2161 c254 -32 544 -101 760 -182 52 -20 105 -42
118 -51 31 -20 52 -63 52 -108 0 -65 -40 -91 -245 -163 -1286 -450 -1837 -724
-2395 -1193 -41 -35 -71 -56 -68 -48 92 232 305 732 428 1005 126 280 346 721
363 728 9 3 50 9 92 13 l75 7 0 -41 c0 -90 97 -140 170 -89 19 13 76 52 125
87 l90 62 155 -6 c85 -3 211 -12 280 -21z m779 -1270 c247 -37 426 -105 632
-244 418 -279 683 -754 784 -1401 23 -145 31 -569 15 -753 -7 -78 -15 -146
-17 -151 -3 -4 -36 50 -72 120 -259 496 -635 943 -1061 1262 -367 273 -837
479 -1259 551 -252 43 -572 47 -821 11 -35 -5 -66 -8 -67 -6 -2 1 40 34 92 72
403 293 846 483 1260 538 140 19 385 19 514 1z m-2370 -782 c-14 -36 -3 -75
29 -106 36 -35 75 -35 192 -4 52 15 156 37 230 51 586 106 1105 33 1633 -230
116 -58 331 -183 325 -190 -2 -1 -37 2 -78 8 -149 21 -381 -5 -560 -63 -96
-31 -312 -138 -415 -206 -616 -406 -1101 -1179 -1264 -2016 -47 -239 -56 -341
-56 -607 0 -184 5 -274 18 -360 92 -596 360 -1023 760 -1214 446 -213 1003
-101 1502 301 294 237 577 596 760 963 255 511 375 996 375 1518 0 227 -10
341 -45 517 -13 65 -22 121 -20 123 18 18 282 -498 331 -647 31 -96 104 -127
178 -76 31 21 37 22 32 8 -2 -10 -21 -80 -40 -155 -226 -872 -749 -1746 -1403
-2343 -677 -619 -1465 -949 -2139 -895 -258 20 -433 66 -650 170 -118 56 -271
147 -293 174 -6 8 -29 83 -50 167 -68 267 -200 611 -321 829 -113 205 -240
381 -378 522 l-75 76 -8 84 c-13 139 -10 505 6 670 51 531 210 1081 465 1603
189 387 428 755 684 1054 82 96 274 301 282 301 2 0 -1 -12 -7 -27z m1740
-1093 c94 -50 140 -113 182 -250 19 -62 23 -96 22 -195 -2 -255 -100 -484
-281 -657 -90 -86 -171 -130 -272 -149 -127 -23 -248 32 -325 147 -67 98 -80
154 -80 334 0 131 4 167 23 234 121 420 469 675 731 536z m501 -2822 c119 -60
147 -249 64 -424 -33 -69 -113 -157 -167 -183 -97 -47 -204 -16 -246 73 -82
169 20 451 194 532 63 30 99 30 155 2z m-3492 -445 c53 -105 113 -268 92 -247
-9 9 -130 290 -130 301 0 14 14 -6 38 -54z"/>
<path d="M27490 33454 c-879 -79 -1630 -391 -2319 -964 -230 -191 -513 -491
-691 -731 -61 -83 -73 -118 -72 -216 0 -48 -5 -61 -52 -130 -99 -146 -228
-368 -302 -523 -41 -85 -79 -163 -85 -172 -5 -10 -6 -18 -3 -18 3 0 54 29 113
64 305 182 584 298 908 379 225 57 349 71 593 71 253 0 391 -20 598 -86 148
-47 177 -65 193 -118 19 -63 3 -98 -61 -141 -104 -70 -457 -249 -900 -459
-912 -432 -1257 -633 -1615 -940 -94 -81 -386 -375 -467 -470 -25 -30 -73 -86
-105 -125 -57 -67 -222 -283 -272 -355 -205 -298 -324 -497 -471 -795 -671
-1358 -743 -3012 -185 -4285 48 -109 192 -392 224 -438 10 -15 47 -72 82 -127
124 -195 184 -271 335 -426 255 -263 398 -355 934 -599 346 -157 587 -282 718
-372 l43 -30 -216 -220 c-119 -121 -214 -222 -211 -225 2 -3 97 61 211 142
114 80 209 144 211 142 2 -2 -42 -39 -98 -83 -241 -185 -531 -456 -726 -679
-53 -60 -99 -112 -102 -115 -4 -3 -51 -66 -107 -140 -118 -159 -230 -324 -286
-424 -56 -98 -227 -440 -222 -444 4 -4 13 6 135 148 205 241 502 541 780 791
1075 964 2370 1607 3673 1824 422 70 693 89 1151 82 498 -8 832 -49 1325 -163
23 -5 23 -4 -9 53 -246 436 -675 801 -1114 948 -216 73 -479 107 -676 88 -122
-12 -159 -2 -184 46 -19 35 -21 94 -4 124 6 12 61 80 123 152 623 728 1086
1534 1365 2375 393 1184 397 2351 14 3405 -60 166 -62 188 -13 229 42 35 91
43 140 21 47 -22 281 -258 395 -401 174 -217 328 -456 471 -730 88 -169 77
-171 123 21 109 458 155 865 154 1365 -1 404 -22 641 -90 995 -188 981 -679
1760 -1364 2163 -52 31 -133 81 -180 113 -303 203 -656 325 -1111 385 -118 15
-591 27 -699 18z m-63 -3079 c670 -97 1218 -498 1552 -1135 107 -204 205 -473
261 -715 48 -205 90 -535 90 -695 l-1 -75 -22 30 c-445 604 -1005 1016 -1706
1257 -864 296 -1892 271 -2893 -71 -165 -57 -396 -149 -482 -193 l-39 -20 21
29 c35 49 223 254 337 368 667 667 1420 1089 2160 1210 230 37 506 41 722 10z
m1743 -1020 c0 -5 -5 -3 -10 5 -5 8 -10 20 -10 25 0 6 5 3 10 -5 5 -8 10 -19
10 -25z m68 -140 c-3 -3 -9 2 -12 12 -6 14 -5 15 5 6 7 -7 10 -15 7 -18z
m-2568 -196 c63 -5 137 -13 165 -17 l49 -7 -117 -39 c-709 -233 -1384 -897
-1807 -1776 -218 -455 -351 -906 -417 -1415 -25 -196 -25 -686 0 -865 60 -428
168 -741 361 -1045 27 -44 53 -82 56 -85 3 -3 32 -38 64 -78 162 -200 400
-372 632 -455 159 -57 261 -72 489 -71 231 0 319 13 514 76 634 203 1241 747
1672 1498 299 521 492 1106 565 1710 22 183 25 632 6 795 -42 338 -119 621
-238 872 -24 50 -44 95 -44 98 0 12 163 -145 263 -254 159 -172 366 -451 437
-588 55 -107 152 -124 211 -37 l20 29 -5 -55 c-3 -30 -11 -107 -17 -170 -34
-369 -125 -794 -256 -1195 -406 -1243 -1195 -2355 -2184 -3077 -99 -72 -129
-89 -205 -112 -384 -116 -848 -321 -1180 -519 -104 -62 -119 -68 -221 -86
-272 -49 -627 -53 -872 -11 -1025 179 -1737 940 -1971 2110 -139 694 -92 1512
130 2292 80 282 177 555 290 813 95 217 297 607 393 759 137 218 213 334 225
346 13 13 14 12 8 -14 -10 -42 11 -94 46 -112 52 -27 80 -20 190 43 635 368
1355 593 2068 646 111 8 576 6 680 -4z m25 -775 c312 -154 375 -682 135 -1141
-114 -218 -272 -372 -460 -447 -65 -26 -88 -30 -175 -31 -92 0 -105 3 -167 32
-117 55 -189 138 -246 284 -107 270 -40 675 161 974 90 134 249 272 374 326
76 32 111 38 218 36 88 -3 107 -7 160 -33z m2852 -386 c-3 -8 -6 -5 -6 6 -1
11 2 17 5 13 3 -3 4 -12 1 -19z m10 -275 c-2 -32 -3 -8 -3 52 0 61 1 87 3 58
2 -29 2 -78 0 -110z m-10 -175 c-3 -8 -6 -5 -6 6 -1 11 2 17 5 13 3 -3 4 -12
1 -19z m-2199 -2793 c52 -22 79 -51 114 -120 105 -207 -24 -561 -244 -665
-138 -65 -257 -23 -320 115 -20 43 -23 66 -22 155 0 70 6 125 18 165 76 256
288 419 454 350z"/>
<path d="M3800 21053 c-173 -107 -208 -134 -225 -170 -19 -40 -14 -90 13 -122
16 -19 22 -19 97 -10 144 18 346 -7 503 -62 157 -56 283 -139 411 -274 204
-216 344 -506 516 -1070 90 -294 171 -543 196 -602 16 -37 22 -43 49 -43 34 0
96 50 131 107 20 31 21 44 16 121 -8 114 -48 342 -92 519 -189 771 -560 1354
-990 1559 -145 69 -248 95 -400 101 l-130 5 -95 -59z"/>
<path d="M10790 20104 c-630 -68 -1259 -331 -1800 -750 -143 -110 -431 -395
-538 -531 -140 -178 -298 -433 -309 -500 -4 -24 -1 -33 16 -42 42 -23 81 7
169 132 702 994 1990 1529 3111 1292 476 -101 950 -374 1193 -690 111 -142
221 -345 284 -519 26 -74 62 -180 69 -211 5 -16 9 -34 11 -40 9 -30 46 -184
50 -205 3 -14 18 -92 34 -175 31 -158 36 -189 45 -270 3 -27 8 -57 10 -65 3
-13 10 -70 21 -170 2 -19 7 -66 11 -105 15 -147 8 -524 -13 -627 -2 -13 -6
-39 -9 -58 -3 -19 -7 -42 -8 -50 -2 -8 -8 -37 -12 -65 -5 -27 -10 -52 -10 -55
-1 -3 -5 -23 -9 -45 -5 -22 -14 -65 -21 -95 -8 -30 -16 -66 -19 -80 -2 -14
-23 -92 -46 -175 -23 -82 -43 -154 -44 -160 -2 -5 -13 -44 -25 -85 -121 -406
-163 -569 -159 -616 3 -38 4 -39 38 -36 73 5 108 44 196 219 229 454 389 1009
450 1568 24 222 25 682 0 890 -83 715 -317 1261 -715 1669 -238 243 -479 400
-804 520 -337 126 -768 174 -1167 130z"/>
<path d="M3377 19699 c-108 -16 -217 -121 -298 -284 -87 -176 -114 -334 -106
-610 10 -326 75 -581 229 -889 109 -219 266 -445 468 -676 145 -166 532 -562
540 -553 11 11 46 227 65 393 22 189 30 581 16 775 -30 414 -103 795 -225
1171 -47 142 -62 176 -119 261 -201 302 -390 438 -570 412z"/>
<path d="M11495 17400 c-128 -16 -588 -200 -845 -337 -433 -232 -757 -470
-1095 -807 -199 -198 -209 -209 -185 -217 26 -8 427 -59 640 -81 72 -7 246
-13 410 -12 241 0 307 4 425 22 271 42 474 105 690 215 431 219 703 520 747
825 38 273 -158 405 -595 401 -73 -1 -159 -5 -192 -9z"/>
<path d="M4620 12280 c-37 -15 -45 -22 -42 -42 4 -36 92 -451 96 -455 2 -3 24
15 49 39 l44 43 -45 218 c-25 119 -48 217 -51 216 -3 0 -26 -8 -51 -19z"/>
<path d="M5366 8627 c3 -10 9 -15 12 -12 3 3 0 11 -7 18 -10 9 -11 8 -5 -6z"/>
<path d="M5376 8587 c3 -10 9 -15 12 -12 3 3 0 11 -7 18 -10 9 -11 8 -5 -6z"/>
<path d="M5386 8547 c3 -10 9 -15 12 -12 3 3 0 11 -7 18 -10 9 -11 8 -5 -6z"/>
<path d="M5391 8515 c1 -19 18 -51 18 -35 0 8 -4 22 -9 30 -5 8 -9 11 -9 5z"/>
<path d="M5441 8324 c0 -11 3 -14 6 -6 3 7 2 16 -1 19 -3 4 -6 -2 -5 -13z"/>
</g>
</svg>
